<?xml version="1.0" encoding="UTF-8" standalone="no"?>
<!-- Created with Inkscape (http://www.inkscape.org/) -->

<svg
   width="142.3262mm"
   height="13.944695mm"
   viewBox="0 0 142.3262 13.944695"
   version="1.1"
   id="svg1"
   xml:space="preserve"
   inkscape:version="1.3.2 (1:1.3.2+202311252150+091e20ef0f)"
   sodipodi:docname="OpenClimatefund.svg"
   xmlns:inkscape="http://www.inkscape.org/namespaces/inkscape"
   xmlns:sodipodi="http://sodipodi.sourceforge.net/DTD/sodipodi-0.dtd"
   xmlns:xlink="http://www.w3.org/1999/xlink"
   xmlns="http://www.w3.org/2000/svg"
   xmlns:svg="http://www.w3.org/2000/svg"><sodipodi:namedview
     id="namedview1"
     pagecolor="#ffffff"
     bordercolor="#000000"
     borderopacity="0.25"
     inkscape:showpageshadow="2"
     inkscape:pageopacity="0.0"
     inkscape:pagecheckerboard="0"
     inkscape:deskcolor="#d1d1d1"
     inkscape:document-units="mm"
     inkscape:zoom="1.1263116"
     inkscape:cx="230.39806"
     inkscape:cy="42.616982"
     inkscape:window-width="1920"
     inkscape:window-height="1136"
     inkscape:window-x="0"
     inkscape:window-y="27"
     inkscape:window-maximized="1"
     inkscape:current-layer="Group-6-9" /><defs
     id="defs1"><path
       id="a"
       d="M 166.153,305.419 H 565.736 V 560.326 H 166.153 Z" /><path
       id="b"
       d="M 79.954,79.11 H 0 V 0.469 h 79.954 z" /><path
       id="c"
       d="M 79.954,0.469 V 79.11 H 0 V 0.469 Z" /><rect
       x="166.15295"
       y="305.41885"
       width="399.58295"
       height="254.90656"
       id="rect1" /><polygon
       id="path-1"
       points="79.954133,0.46859016 79.954133,79.109902 0,79.109902 0,0.46859016 " /><path
       id="a-6"
       d="M 166.153,305.419 H 565.736 V 560.326 H 166.153 Z" /><path
       id="b-2"
       d="M 79.954,79.11 H 0 V 0.469 h 79.954 z" /><path
       id="c-9"
       d="M 79.954,0.469 V 79.11 H 0 V 0.469 Z" /><rect
       x="166.15295"
       y="305.41885"
       width="399.58295"
       height="254.90656"
       id="rect1-8" /><polygon
       id="path-1-7"
       points="79.954133,79.109902 0,79.109902 0,0.46859016 79.954133,0.46859016 " /><rect
       x="125.46689"
       y="71.004456"
       width="502.31644"
       height="78.37796"
       id="rect1-1" /><polygon
       id="path-1-2"
       points="79.954133,79.109902 0,79.109902 0,0.46859016 79.954133,0.46859016 " /><style
       id="style1">.cls-1{fill:#3b52ff;}.cls-2{fill:#00e6a7;}.cls-3{fill:#fb7363;}</style><polygon
       id="path-1-7-9"
       points="79.954133,79.109902 0,79.109902 0,0.46859016 79.954133,0.46859016 " /></defs><g
     inkscape:label="Layer 1"
     inkscape:groupmode="layer"
     id="layer1"
     transform="translate(-31.646228,-148.5)"><g
       id="g1"
       transform="matrix(0.99998888,0,0,0.99998888,79.326379,120.81835)"><g
         inkscape:label="Layer 1"
         id="layer1-31"
         transform="matrix(1.0000111,0,0,1.0000111,-76.401455,0.08689308)"><text
           xml:space="preserve"
           transform="scale(0.26458333)"
           id="text1-9"
           style="font-size:16px;line-height:1.25;font-family:sans-serif;letter-spacing:0px;word-spacing:0px;white-space:pre;shape-inside:url(#rect1-1);display:inline" /><g
           id="g14"
           transform="translate(0,0.55005663)"><path
             d="m 48.558639,28.685339 q -0.454752,0 -0.72347,0.338997 -0.26665,0.338997 -0.26665,0.923974 0,0.582909 0.26665,0.921906 0.268718,0.338997 0.72347,0.338997 0.454752,0 0.719335,-0.338997 0.26665,-0.338997 0.26665,-0.921906 0,-0.584977 -0.26665,-0.923974 -0.264583,-0.338997 -0.719335,-0.338997 z m 0,-0.338997 q 0.649055,0 1.037662,0.436148 0.388606,0.434082 0.388606,1.16582 0,0.72967 -0.388606,1.165819 -0.388607,0.434082 -1.037662,0.434082 -0.651123,0 -1.041796,-0.434082 -0.388607,-0.434082 -0.388607,-1.165819 0,-0.731738 0.388607,-1.16582 0.390673,-0.436148 1.041796,-0.436148 z m 2.430857,2.794659 v 1.227831 h -0.382405 v -3.195668 h 0.382405 v 0.351399 q 0.119889,-0.206705 0.30179,-0.305924 0.183968,-0.101286 0.438216,-0.101286 0.421679,0 0.684195,0.334863 0.264584,0.334863 0.264584,0.880566 0,0.545703 -0.264584,0.880566 -0.262516,0.334863 -0.684195,0.334863 -0.254248,0 -0.438216,-0.09922 -0.181901,-0.101286 -0.30179,-0.307991 z m 1.293977,-0.808219 q 0,-0.419612 -0.173633,-0.657324 -0.171565,-0.239778 -0.473355,-0.239778 -0.301791,0 -0.475423,0.239778 -0.171566,0.237712 -0.171566,0.657324 0,0.419612 0.171566,0.659391 0.173632,0.237711 0.475423,0.237711 0.30179,0 0.473355,-0.237711 0.173633,-0.239779 0.173633,-0.659391 z m 3.005499,-0.09715 v 0.186035 h -1.748729 q 0.02481,0.392741 0.235644,0.599446 0.212907,0.204639 0.591178,0.204639 0.219108,0 0.423747,-0.05374 0.206705,-0.05374 0.409277,-0.16123 v 0.359668 q -0.204639,0.08682 -0.419613,0.132291 -0.214974,0.04548 -0.436148,0.04548 -0.553971,0 -0.878499,-0.322461 -0.322461,-0.322461 -0.322461,-0.872298 0,-0.56844 0.305924,-0.901236 0.307992,-0.334863 0.82889,-0.334863 0.467154,0 0.737939,0.30179 0.272851,0.299723 0.272851,0.816487 z m -0.380338,-0.111621 q -0.0041,-0.312125 -0.1757,-0.49816 -0.169499,-0.186035 -0.450618,-0.186035 -0.318327,0 -0.510563,0.179834 -0.190169,0.179834 -0.219108,0.506428 z m 2.929017,-0.03307 v 1.39733 h -0.380338 v -1.384927 q 0,-0.328662 -0.128158,-0.491959 -0.128157,-0.163298 -0.384472,-0.163298 -0.307992,0 -0.485758,0.19637 -0.177767,0.196371 -0.177767,0.535368 v 1.308446 h -0.382405 v -2.315102 h 0.382405 v 0.359667 q 0.136426,-0.208772 0.320394,-0.312125 0.186035,-0.103353 0.42788,-0.103353 0.398942,0 0.60358,0.248047 0.204639,0.24598 0.204639,0.725536 z"
             id="text2-4"
             style="font-size:4.23333px;line-height:1.25;font-family:FontAwesome;-inkscape-font-specification:FontAwesome;letter-spacing:0px;word-spacing:0px;white-space:pre;inline-size:33.3802;fill:#3b52ff;stroke-width:0.264583"
             transform="matrix(3.4262776,0,0,3.4262776,-120.4635,-69.915205)"
             aria-label="  Open " /><path
             d="m 48.271318,28.639863 v 0.440283 q -0.210839,-0.19637 -0.450618,-0.293522 -0.237711,-0.09715 -0.506429,-0.09715 -0.529166,0 -0.810285,0.324527 -0.28112,0.322461 -0.28112,0.93431 0,0.609781 0.28112,0.934309 0.281119,0.32246 0.810285,0.32246 0.268718,0 0.506429,-0.09715 0.239779,-0.09715 0.450618,-0.293522 v 0.436149 q -0.219108,0.148828 -0.465087,0.223242 -0.243913,0.07441 -0.516764,0.07441 -0.700732,0 -1.103808,-0.427881 -0.403076,-0.429947 -0.403076,-1.17202 0,-0.74414 0.403076,-1.172021 0.403076,-0.429947 1.103808,-0.429947 0.276985,0 0.520898,0.07441 0.245979,0.07235 0.460953,0.219107 z m 0.628385,-0.367935 h 0.380338 v 3.216338 h -0.380338 z m 1.176155,0.901236 h 0.380338 v 2.315102 h -0.380338 z m 0,-0.901236 h 0.380338 v 0.481623 h -0.380338 z m 2.978627,1.345653 q 0.142627,-0.256315 0.341064,-0.378271 0.198437,-0.121957 0.467155,-0.121957 0.361734,0 0.558105,0.254248 0.19637,0.252181 0.19637,0.719335 v 1.39733 h -0.382405 v -1.384927 q 0,-0.332796 -0.117823,-0.494027 -0.117822,-0.16123 -0.359667,-0.16123 -0.295589,0 -0.467155,0.19637 -0.171565,0.196371 -0.171565,0.535368 v 1.308446 h -0.382406 v -1.384927 q 0,-0.334863 -0.117822,-0.494027 -0.117822,-0.16123 -0.363802,-0.16123 -0.291454,0 -0.46302,0.198437 -0.171566,0.196371 -0.171566,0.533301 v 1.308446 h -0.382405 v -2.315102 h 0.382405 v 0.359667 q 0.130225,-0.212906 0.312126,-0.314192 0.181901,-0.101286 0.432014,-0.101286 0.252181,0 0.427881,0.128158 0.177767,0.128157 0.262516,0.37207 z m 3.373435,0.706933 q -0.460954,0 -0.63872,0.10542 -0.177767,0.105419 -0.177767,0.359667 0,0.202572 0.132291,0.322461 0.134359,0.117822 0.363802,0.117822 0.31626,0 0.506429,-0.223242 0.192236,-0.225309 0.192236,-0.597379 v -0.08475 z m 0.758609,-0.157097 v 1.320849 h -0.380338 v -0.351399 q -0.130225,0.210839 -0.324528,0.312125 -0.194303,0.09922 -0.475423,0.09922 -0.355533,0 -0.566373,-0.198438 -0.208772,-0.200504 -0.208772,-0.535367 0,-0.390674 0.260449,-0.589111 0.262516,-0.198437 0.781347,-0.198437 h 0.5333 v -0.03721 q 0,-0.262516 -0.173633,-0.405143 -0.171565,-0.144694 -0.483691,-0.144694 -0.198437,0 -0.386539,0.04754 -0.188102,0.04754 -0.361735,0.142627 v -0.351399 q 0.208773,-0.08062 0.405143,-0.11989 0.19637,-0.04134 0.382405,-0.04134 0.502295,0 0.750341,0.260449 0.248047,0.260449 0.248047,0.789615 z m 1.159618,-1.651577 v 0.657324 h 0.783414 v 0.295589 h -0.783414 v 1.256769 q 0,0.283187 0.07648,0.363802 0.07855,0.08061 0.316259,0.08061 h 0.390674 v 0.318327 h -0.390674 q -0.440282,0 -0.607714,-0.163297 -0.167431,-0.165365 -0.167431,-0.599447 v -1.256769 h -0.279053 v -0.295589 h 0.279053 V 28.51584 Z m 3.263881,1.71979 v 0.186035 h -1.748729 q 0.02481,0.392741 0.235645,0.599446 0.212906,0.204639 0.591178,0.204639 0.219107,0 0.423746,-0.05374 0.206705,-0.05374 0.409277,-0.16123 v 0.359668 q -0.204639,0.08682 -0.419612,0.132291 -0.214974,0.04548 -0.436149,0.04548 -0.553971,0 -0.878499,-0.322461 -0.32246,-0.322461 -0.32246,-0.872298 0,-0.56844 0.305924,-0.901236 0.307991,-0.334863 0.828889,-0.334863 0.467155,0 0.737939,0.30179 0.272851,0.299723 0.272851,0.816487 z M 61.22969,30.124009 q -0.0041,-0.312125 -0.1757,-0.49816 -0.169498,-0.186035 -0.450618,-0.186035 -0.318326,0 -0.510562,0.179834 -0.19017,0.179834 -0.219108,0.506428 z m 1.058332,0.839225 h 0.436149 v 0.525032 h -0.436149 z m 2.46393,-2.691306 v 0.316259 h -0.363801 q -0.204639,0 -0.285254,0.08268 -0.07855,0.08268 -0.07855,0.297656 v 0.204639 h 0.626318 v 0.295589 h -0.626318 v 2.019513 h -0.382405 v -2.019513 h -0.363802 v -0.295589 h 0.363802 v -0.161231 q 0,-0.386539 0.179833,-0.562239 0.179834,-0.177766 0.570508,-0.177766 z m 0.279053,2.302699 v -1.401463 h 0.380338 v 1.386994 q 0,0.328662 0.128157,0.494026 0.128158,0.163298 0.384473,0.163298 0.307991,0 0.485758,-0.196371 0.179834,-0.19637 0.179834,-0.535367 v -1.31258 h 0.380338 v 2.315102 h -0.380338 v -0.355534 q -0.138493,0.21084 -0.322461,0.314193 -0.181901,0.101286 -0.423746,0.101286 -0.398942,0 -0.605648,-0.248047 -0.206705,-0.248047 -0.206705,-0.725537 z m 0.957047,-1.457274 z m 3.689694,0.973583 v 1.39733 h -0.380338 v -1.384927 q 0,-0.328662 -0.128157,-0.491959 -0.128158,-0.163298 -0.384473,-0.163298 -0.307991,0 -0.485758,0.19637 -0.177767,0.196371 -0.177767,0.535368 v 1.308446 h -0.382405 v -2.315102 h 0.382405 v 0.359667 q 0.136426,-0.208772 0.320394,-0.312125 0.186035,-0.103353 0.427881,-0.103353 0.398941,0 0.60358,0.248047 0.204638,0.24598 0.204638,0.725536 z m 2.282028,-0.566373 v -1.252635 h 0.380339 v 3.216338 h -0.380339 v -0.347265 q -0.119889,0.206705 -0.303857,0.307991 -0.181901,0.09922 -0.438216,0.09922 -0.419612,0 -0.684195,-0.334863 -0.262516,-0.334863 -0.262516,-0.880566 0,-0.545703 0.262516,-0.880566 0.264583,-0.334863 0.684195,-0.334863 0.256315,0 0.438216,0.101286 0.183968,0.09922 0.303857,0.305924 z m -1.296044,0.808219 q 0,0.419612 0.171566,0.659391 0.173633,0.237711 0.475423,0.237711 0.30179,0 0.475423,-0.237711 0.173632,-0.239779 0.173632,-0.659391 0,-0.419612 -0.173632,-0.657324 -0.173633,-0.239778 -0.475423,-0.239778 -0.30179,0 -0.475423,0.239778 -0.171566,0.237712 -0.171566,0.657324 z"
             id="text2-8"
             style="font-size:4.23333px;line-height:1.25;font-family:FontAwesome;-inkscape-font-specification:FontAwesome;letter-spacing:0px;word-spacing:0px;white-space:pre;inline-size:33.3802;fill:#00e6a7;stroke-width:0.264583"
             transform="matrix(3.4262776,0,0,3.4262776,-76.810649,-69.660242)"
             aria-label=" Climate.fund" /><g
             id="Group-6-8"
             transform="matrix(0.06824688,0,0,0.06824688,20.305276,8.7376555)"
             style="fill:none;fill-rule:evenodd;stroke:none;stroke-width:1"><g
               id="Group-6-9"
               transform="matrix(1.1072012,0,0,1.1072012,123.30496,267.72855)"
               style="fill:none;fill-rule:evenodd;stroke:none;stroke-width:1"><g
                 id="Group-3-4"
                 transform="matrix(1.1216333,0,0,1.1216333,0,-0.05699615)"><mask
                   id="mask-2-5"
                   fill="#ffffff"><use
                     xlink:href="#path-1-7-9"
                     id="use1-0" /></mask><g
                   id="Clip-2-3" /><path
                   d="M 34.243467,79.109902 H -5.3333333e-4 C -5.3333333e-4,35.747279 35.867467,0.46859016 79.954133,0.46859016 V 34.149902 c -25.205333,0 -45.710666,20.16918 -45.710666,44.96"
                   id="Fill-1-6"
                   fill="#3b52ff"
                   mask="url(#mask-2-5)" /></g><path
                 d="m 167.12336,185.01249 c -49.47794,0 -89.730664,-39.74809 -89.730664,-88.609025 h 38.430124 c 0,27.932575 23.01439,50.659275 51.30054,50.659275 z"
                 id="Fill-4-1"
                 fill="#00e6a7"
                 style="stroke-width:1.12163" /></g></g></g></g></g></g></svg>
