<?xml version="1.0" encoding="UTF-8" standalone="no"?>
<!-- Created with Inkscape (http://www.inkscape.org/) -->

<svg
   width="159.77602mm"
   height="14.24927mm"
   viewBox="0 0 159.77601 14.24927"
   version="1.1"
   id="svg1"
   xml:space="preserve"
   inkscape:version="1.3.2 (1:1.3.2+202311252150+091e20ef0f)"
   sodipodi:docname="OpenClimatefund_text.svg"
   xmlns:inkscape="http://www.inkscape.org/namespaces/inkscape"
   xmlns:sodipodi="http://sodipodi.sourceforge.net/DTD/sodipodi-0.dtd"
   xmlns:xlink="http://www.w3.org/1999/xlink"
   xmlns="http://www.w3.org/2000/svg"
   xmlns:svg="http://www.w3.org/2000/svg"><sodipodi:namedview
     id="namedview1"
     pagecolor="#ffffff"
     bordercolor="#000000"
     borderopacity="0.25"
     inkscape:showpageshadow="2"
     inkscape:pageopacity="0.0"
     inkscape:pagecheckerboard="0"
     inkscape:deskcolor="#d1d1d1"
     inkscape:document-units="mm"
     inkscape:zoom="0.79642256"
     inkscape:cx="41.435291"
     inkscape:cy="-156.95186"
     inkscape:window-width="1920"
     inkscape:window-height="1136"
     inkscape:window-x="0"
     inkscape:window-y="27"
     inkscape:window-maximized="1"
     inkscape:current-layer="g14" /><defs
     id="defs1"><path
       id="a"
       d="M 166.153,305.419 H 565.736 V 560.326 H 166.153 Z" /><path
       id="b"
       d="M 79.954,79.11 H 0 V 0.469 h 79.954 z" /><path
       id="c"
       d="M 79.954,0.469 V 79.11 H 0 V 0.469 Z" /><rect
       x="166.15295"
       y="305.41885"
       width="399.58295"
       height="254.90656"
       id="rect1" /><polygon
       id="path-1"
       points="79.954133,79.109902 0,79.109902 0,0.46859016 79.954133,0.46859016 " /><path
       id="a-6"
       d="M 166.153,305.419 H 565.736 V 560.326 H 166.153 Z" /><path
       id="b-2"
       d="M 79.954,79.11 H 0 V 0.469 h 79.954 z" /><path
       id="c-9"
       d="M 79.954,0.469 V 79.11 H 0 V 0.469 Z" /><rect
       x="166.15295"
       y="305.41885"
       width="399.58295"
       height="254.90656"
       id="rect1-8" /><polygon
       id="path-1-7"
       points="0,79.109902 0,0.46859016 79.954133,0.46859016 79.954133,79.109902 " /><rect
       x="125.46689"
       y="71.004456"
       width="502.31644"
       height="78.37796"
       id="rect1-1" /><polygon
       id="path-1-2"
       points="0,79.109902 0,0.46859016 79.954133,0.46859016 79.954133,79.109902 " /><style
       id="style1">.cls-1{fill:#3b52ff;}.cls-2{fill:#00e6a7;}.cls-3{fill:#fb7363;}</style><polygon
       id="path-1-7-9"
       points="0,79.109902 0,0.46859016 79.954133,0.46859016 79.954133,79.109902 " /></defs><g
     inkscape:label="Layer 1"
     inkscape:groupmode="layer"
     id="layer1"
     transform="translate(-31.601715,-148.19543)"><g
       id="g1"
       transform="matrix(0.99998888,0,0,0.99998888,79.326379,120.81835)"><g
         inkscape:label="Layer 1"
         id="layer1-31"
         transform="matrix(1.0000111,0,0,1.0000111,-76.401455,0.08689308)"><text
           xml:space="preserve"
           transform="scale(0.26458333)"
           id="text1-9"
           style="font-size:16px;line-height:1.25;font-family:sans-serif;letter-spacing:0px;word-spacing:0px;white-space:pre;shape-inside:url(#rect1-1);display:inline" /><g
           id="g14"
           transform="translate(0,0.55005663)"><text
             xml:space="preserve"
             style="font-style:normal;font-variant:normal;font-weight:normal;font-stretch:normal;font-size:4.23333px;line-height:1.25;font-family:FontAwesome;-inkscape-font-specification:FontAwesome;letter-spacing:0px;word-spacing:0px;white-space:pre;inline-size:33.3802;display:inline;fill:#3b52ff;fill-opacity:1;stroke-width:0.264583"
             x="44.198788"
             y="31.488266"
             id="text2-4"
             transform="matrix(3.4262776,0,0,3.4262776,-116.95264,-69.915205)"><tspan
               x="44.198788"
               y="31.488266"
               id="tspan6">  <tspan
   style="font-weight:bold"
   id="tspan5">Open</tspan> </tspan></text><text
             xml:space="preserve"
             style="font-style:normal;font-variant:normal;font-weight:normal;font-stretch:normal;font-size:4.23333px;line-height:1.25;font-family:FontAwesome;-inkscape-font-specification:FontAwesome;letter-spacing:0px;word-spacing:0px;white-space:pre;inline-size:33.3802;display:inline;fill:#00e6a7;fill-opacity:1;stroke-width:0.264583"
             x="44.198788"
             y="31.488266"
             id="text2-8"
             transform="matrix(3.4262776,0,0,3.4262776,-70.510384,-70.127345)"><tspan
               x="44.198788"
               y="31.488266"
               id="tspan8"> <tspan
   style="font-weight:bold"
   id="tspan7">Climate.fund</tspan></tspan></text><g
             id="Group-6-8"
             transform="matrix(0.06824688,0,0,0.06824688,20.260763,8.5421382)"
             style="fill:none;fill-rule:evenodd;stroke:none;stroke-width:1"><g
               id="Group-6-9"
               transform="matrix(1.1072012,0,0,1.1072012,123.30496,267.72855)"
               style="fill:none;fill-rule:evenodd;stroke:none;stroke-width:1"><g
                 id="Group-3-4"
                 transform="matrix(1.1216333,0,0,1.1216333,0,-0.05699615)"><mask
                   id="mask-2-5"
                   fill="#ffffff"><use
                     xlink:href="#path-1-7-9"
                     id="use1-0" /></mask><g
                   id="Clip-2-3" /><path
                   d="M 34.243467,79.109902 H -5.3333333e-4 C -5.3333333e-4,35.747279 35.867467,0.46859016 79.954133,0.46859016 V 34.149902 c -25.205333,0 -45.710666,20.16918 -45.710666,44.96"
                   id="Fill-1-6"
                   fill="#3b52ff"
                   mask="url(#mask-2-5)" /></g><path
                 d="m 167.12336,185.01249 c -49.47794,0 -89.730664,-39.74809 -89.730664,-88.609025 h 38.430124 c 0,27.932575 23.01439,50.659275 51.30054,50.659275 z"
                 id="Fill-4-1"
                 fill="#00e6a7"
                 style="stroke-width:1.12163" /></g></g></g></g></g></g></svg>
