<?xml version="1.0" encoding="UTF-8" standalone="no"?>
<!-- Created with Inkscape (http://www.inkscape.org/) -->

<svg
   width="159.77602mm"
   height="14.24927mm"
   viewBox="0 0 159.77601 14.24927"
   version="1.1"
   id="svg1"
   xml:space="preserve"
   inkscape:version="1.3.2 (1:1.3.2+202311252150+091e20ef0f)"
   sodipodi:docname="OpenClimatefund_paths.svg"
   xmlns:inkscape="http://www.inkscape.org/namespaces/inkscape"
   xmlns:sodipodi="http://sodipodi.sourceforge.net/DTD/sodipodi-0.dtd"
   xmlns:xlink="http://www.w3.org/1999/xlink"
   xmlns="http://www.w3.org/2000/svg"
   xmlns:svg="http://www.w3.org/2000/svg"><sodipodi:namedview
     id="namedview1"
     pagecolor="#ffffff"
     bordercolor="#000000"
     borderopacity="0.25"
     inkscape:showpageshadow="2"
     inkscape:pageopacity="0.0"
     inkscape:pagecheckerboard="0"
     inkscape:deskcolor="#d1d1d1"
     inkscape:document-units="mm"
     inkscape:zoom="0.79642256"
     inkscape:cx="72.825662"
     inkscape:cy="-156.95186"
     inkscape:window-width="1920"
     inkscape:window-height="1136"
     inkscape:window-x="0"
     inkscape:window-y="27"
     inkscape:window-maximized="1"
     inkscape:current-layer="g14" /><defs
     id="defs1"><path
       id="a"
       d="M 166.153,305.419 H 565.736 V 560.326 H 166.153 Z" /><path
       id="b"
       d="M 79.954,79.11 H 0 V 0.469 h 79.954 z" /><path
       id="c"
       d="M 79.954,0.469 V 79.11 H 0 V 0.469 Z" /><rect
       x="166.15295"
       y="305.41885"
       width="399.58295"
       height="254.90656"
       id="rect1" /><polygon
       id="path-1"
       points="79.954133,79.109902 0,79.109902 0,0.46859016 79.954133,0.46859016 " /><path
       id="a-6"
       d="M 166.153,305.419 H 565.736 V 560.326 H 166.153 Z" /><path
       id="b-2"
       d="M 79.954,79.11 H 0 V 0.469 h 79.954 z" /><path
       id="c-9"
       d="M 79.954,0.469 V 79.11 H 0 V 0.469 Z" /><rect
       x="166.15295"
       y="305.41885"
       width="399.58295"
       height="254.90656"
       id="rect1-8" /><polygon
       id="path-1-7"
       points="0,79.109902 0,0.46859016 79.954133,0.46859016 79.954133,79.109902 " /><rect
       x="125.46689"
       y="71.004456"
       width="502.31644"
       height="78.37796"
       id="rect1-1" /><polygon
       id="path-1-2"
       points="0,79.109902 0,0.46859016 79.954133,0.46859016 79.954133,79.109902 " /><style
       id="style1">.cls-1{fill:#3b52ff;}.cls-2{fill:#00e6a7;}.cls-3{fill:#fb7363;}</style><polygon
       id="path-1-7-9"
       points="0,79.109902 0,0.46859016 79.954133,0.46859016 79.954133,79.109902 " /></defs><g
     inkscape:label="Layer 1"
     inkscape:groupmode="layer"
     id="layer1"
     transform="translate(-31.601715,-148.19543)"><g
       id="g1"
       transform="matrix(0.99998888,0,0,0.99998888,79.326379,120.81835)"><g
         inkscape:label="Layer 1"
         id="layer1-31"
         transform="matrix(1.0000111,0,0,1.0000111,-76.401455,0.08689308)"><text
           xml:space="preserve"
           transform="scale(0.26458333)"
           id="text1-9"
           style="font-size:16px;line-height:1.25;font-family:sans-serif;letter-spacing:0px;word-spacing:0px;white-space:pre;shape-inside:url(#rect1-1);display:inline" /><g
           id="g14"
           transform="translate(0,0.55005663)"><path
             style="font-weight:bold;font-size:4.23333px;line-height:1.25;font-family:FontAwesome;-inkscape-font-specification:FontAwesome;letter-spacing:0px;word-spacing:0px;white-space:pre;inline-size:33.3802;fill:#3b52ff;stroke-width:0.264583"
             d="m 48.114206,28.92305 q -0.363802,0 -0.564306,0.268717 -0.200505,0.268717 -0.200505,0.756543 0,0.485758 0.200505,0.754475 0.200504,0.268717 0.564306,0.268717 0.365869,0 0.566373,-0.268717 0.200504,-0.268717 0.200504,-0.754475 0,-0.487826 -0.200504,-0.756543 -0.200504,-0.268717 -0.566373,-0.268717 z m 0,-0.576708 q 0.74414,0 1.165819,0.425813 0.421679,0.425813 0.421679,1.176155 0,0.748274 -0.421679,1.174087 -0.421679,0.425814 -1.165819,0.425814 -0.742073,0 -1.16582,-0.425814 -0.421679,-0.425813 -0.421679,-1.174087 0,-0.750342 0.421679,-1.176155 0.423747,-0.425813 1.16582,-0.425813 z m 2.895944,2.807061 v 1.215429 h -0.740006 v -3.195668 h 0.740006 v 0.338997 q 0.152962,-0.202572 0.338997,-0.297656 0.186035,-0.09715 0.427881,-0.09715 0.42788,0 0.702799,0.341064 0.274918,0.338998 0.274918,0.874365 0,0.535367 -0.274918,0.876431 -0.274919,0.338998 -0.702799,0.338998 -0.241846,0 -0.427881,-0.09508 -0.186035,-0.09715 -0.338997,-0.299723 z m 0.49196,-1.498615 q -0.237712,0 -0.365869,0.175699 -0.126091,0.173633 -0.126091,0.502295 0,0.328662 0.126091,0.504361 0.128157,0.173633 0.365869,0.173633 0.237711,0 0.361734,-0.173633 0.126091,-0.173632 0.126091,-0.504361 0,-0.330729 -0.126091,-0.504362 -0.124023,-0.173632 -0.361734,-0.173632 z m 4.109306,0.669726 v 0.210839 h -1.730125 q 0.02687,0.260449 0.188102,0.390674 0.16123,0.130224 0.450618,0.130224 0.233577,0 0.47749,-0.06821 0.24598,-0.07028 0.504362,-0.21084 v 0.570507 q -0.262517,0.09922 -0.525033,0.148828 -0.262516,0.05168 -0.525032,0.05168 -0.628385,0 -0.977717,-0.318327 -0.347265,-0.320394 -0.347265,-0.897102 0,-0.566373 0.341064,-0.890901 0.343131,-0.324528 0.942577,-0.324528 0.545703,0 0.872298,0.328662 0.328661,0.328662 0.328661,0.878499 z m -0.760676,-0.24598 q 0,-0.21084 -0.124023,-0.338997 -0.121957,-0.130225 -0.320394,-0.130225 -0.214974,0 -0.349332,0.121957 -0.134359,0.119889 -0.167432,0.347265 z m 3.648353,0 v 1.409732 h -0.74414 v -0.229443 -0.84956 q 0,-0.299723 -0.01447,-0.413411 -0.0124,-0.113688 -0.04548,-0.167432 -0.04341,-0.07235 -0.117822,-0.111621 -0.07441,-0.04134 -0.169499,-0.04134 -0.23151,0 -0.363802,0.179834 -0.132291,0.177767 -0.132291,0.494026 v 1.138948 h -0.740006 v -2.315102 h 0.740006 v 0.338997 q 0.167431,-0.202572 0.355533,-0.297656 0.188102,-0.09715 0.415478,-0.09715 0.401009,0 0.607715,0.24598 0.208772,0.245979 0.208772,0.715201 z"
             id="text2-4"
             transform="matrix(3.4262776,0,0,3.4262776,-116.95264,-69.915205)"
             aria-label="  Open " /><path
             style="font-weight:bold;font-size:4.23333px;line-height:1.25;font-family:FontAwesome;-inkscape-font-specification:FontAwesome;letter-spacing:0px;word-spacing:0px;white-space:pre;inline-size:33.3802;fill:#00e6a7;stroke-width:0.264583"
             d="m 48.093543,31.318767 q -0.219108,0.113688 -0.456819,0.171566 -0.237711,0.05788 -0.496093,0.05788 -0.771012,0 -1.22163,-0.429948 -0.450618,-0.432015 -0.450618,-1.169953 0,-0.740006 0.450618,-1.169954 0.450618,-0.432014 1.22163,-0.432014 0.258382,0 0.496093,0.05788 0.237711,0.05788 0.456819,0.171566 v 0.63872 q -0.221175,-0.150895 -0.436148,-0.221175 -0.214974,-0.07028 -0.452686,-0.07028 -0.425813,0 -0.669726,0.272851 -0.243912,0.272852 -0.243912,0.752409 0,0.477489 0.243912,0.750341 0.243913,0.272851 0.669726,0.272851 0.237712,0 0.452686,-0.07028 0.214973,-0.07028 0.436148,-0.221175 z m 0.626318,-3.046839 h 0.740006 v 3.216338 h -0.740006 z m 1.451073,0.901236 h 0.740006 v 2.315102 h -0.740006 z m 0,-0.901236 h 0.740006 v 0.60358 h -0.740006 z m 3.596677,1.285708 q 0.14056,-0.214974 0.332796,-0.326595 0.194303,-0.113688 0.425813,-0.113688 0.398942,0 0.607715,0.24598 0.208772,0.245979 0.208772,0.715201 v 1.409732 h -0.74414 v -1.20716 q 0.0021,-0.02687 0.0021,-0.05581 0.0021,-0.02894 0.0021,-0.08268 0,-0.24598 -0.07235,-0.355534 -0.07235,-0.111621 -0.233577,-0.111621 -0.210839,0 -0.326595,0.173633 -0.113688,0.173633 -0.117822,0.502294 v 1.136881 h -0.74414 v -1.20716 q 0,-0.384473 -0.06615,-0.494027 -0.06614,-0.111621 -0.235644,-0.111621 -0.212907,0 -0.328662,0.1757 -0.115755,0.173633 -0.115755,0.49816 v 1.138948 h -0.74414 v -2.315102 h 0.74414 v 0.338997 q 0.136426,-0.19637 0.312126,-0.295589 0.177766,-0.09922 0.390673,-0.09922 0.239779,0 0.423746,0.115755 0.183968,0.115755 0.279053,0.324528 z m 3.303155,0.888834 q -0.23151,0 -0.349333,0.07855 -0.115755,0.07855 -0.115755,0.23151 0,0.14056 0.09302,0.221175 0.09508,0.07855 0.262516,0.07855 0.208772,0 0.351399,-0.148828 0.142627,-0.150895 0.142627,-0.376204 v -0.08475 z m 1.130679,-0.279053 v 1.320849 h -0.746207 v -0.343131 q -0.148828,0.210839 -0.334863,0.307991 -0.186035,0.09508 -0.452685,0.09508 -0.359668,0 -0.584977,-0.208773 -0.223242,-0.21084 -0.223242,-0.545703 0,-0.40721 0.279053,-0.597379 0.281119,-0.190169 0.880565,-0.190169 h 0.436149 v -0.05788 q 0,-0.1757 -0.138493,-0.256315 -0.138492,-0.08268 -0.432014,-0.08268 -0.237712,0 -0.44235,0.04754 -0.204639,0.04754 -0.380338,0.142627 v -0.564307 q 0.237711,-0.05788 0.47749,-0.08682 0.239778,-0.03101 0.479556,-0.03101 0.626318,0 0.903304,0.248047 0.279052,0.24598 0.279052,0.802017 z m 1.496548,-1.651577 v 0.657324 h 0.762743 v 0.529166 h -0.762743 v 0.981851 q 0,0.161231 0.06408,0.219108 0.06408,0.05581 0.254248,0.05581 h 0.380338 v 0.529166 h -0.634586 q -0.438216,0 -0.622184,-0.181901 -0.181901,-0.183968 -0.181901,-0.622184 V 29.70233 h -0.367936 v -0.529166 h 0.367936 V 28.51584 Z m 3.526397,1.808674 v 0.210839 h -1.730126 q 0.02687,0.260449 0.188102,0.390674 0.161231,0.130224 0.450618,0.130224 0.233578,0 0.47749,-0.06821 0.24598,-0.07028 0.504362,-0.21084 v 0.570507 q -0.262516,0.09922 -0.525032,0.148828 -0.262516,0.05168 -0.525032,0.05168 -0.628385,0 -0.977718,-0.318327 -0.347265,-0.320394 -0.347265,-0.897102 0,-0.566373 0.341064,-0.890901 0.343131,-0.324528 0.942577,-0.324528 0.545703,0 0.872298,0.328662 0.328662,0.328662 0.328662,0.878499 z m -0.760677,-0.24598 q 0,-0.21084 -0.124023,-0.338997 -0.121956,-0.130225 -0.320394,-0.130225 -0.214973,0 -0.349332,0.121957 -0.134359,0.119889 -0.167432,0.347265 z m 1.397331,0.609781 h 0.74414 v 0.799951 h -0.74414 z m 3.055107,-2.416387 v 0.485758 h -0.409277 q -0.157097,0 -0.219108,0.05788 -0.06201,0.05581 -0.06201,0.19637 v 0.161231 h 0.632519 v 0.529166 h -0.632519 v 1.785936 H 65.485748 V 29.70233 h -0.367936 v -0.529166 h 0.367936 v -0.161231 q 0,-0.378271 0.21084,-0.558105 0.21084,-0.1819 0.653189,-0.1819 z m 0.293522,2.315102 v -1.413866 h 0.74414 v 0.23151 q 0,0.188102 -0.0021,0.473356 -0.0021,0.283186 -0.0021,0.378271 0,0.279052 0.01447,0.403076 0.01447,0.121956 0.04961,0.177766 0.04548,0.07235 0.117822,0.111621 0.07441,0.03927 0.169499,0.03927 0.23151,0 0.363801,-0.177767 0.132292,-0.177767 0.132292,-0.494027 v -1.143081 h 0.740006 v 2.315102 h -0.740006 v -0.334863 q -0.167432,0.202571 -0.355534,0.299723 -0.186035,0.09508 -0.411344,0.09508 -0.401008,0 -0.611848,-0.24598 -0.208773,-0.24598 -0.208773,-0.715201 z m 5.366077,-0.508496 v 1.409732 h -0.74414 v -0.229443 -0.84956 q 0,-0.299723 -0.01447,-0.413411 -0.0124,-0.113688 -0.04547,-0.167432 -0.04341,-0.07235 -0.117822,-0.111621 -0.07441,-0.04134 -0.169499,-0.04134 -0.23151,0 -0.363801,0.179834 -0.132292,0.177767 -0.132292,0.494026 v 1.138948 h -0.740006 v -2.315102 h 0.740006 v 0.338997 q 0.167432,-0.202572 0.355534,-0.297656 0.188102,-0.09715 0.415478,-0.09715 0.401009,0 0.607714,0.24598 0.208773,0.245979 0.208773,0.715201 z m 2.261359,-0.566373 v -1.240233 h 0.74414 v 3.216338 h -0.74414 v -0.334863 q -0.152962,0.204638 -0.33693,0.299723 -0.183968,0.09508 -0.425814,0.09508 -0.42788,0 -0.702799,-0.338998 -0.274918,-0.341064 -0.274918,-0.876431 0,-0.535367 0.274918,-0.874365 0.274919,-0.341064 0.702799,-0.341064 0.239779,0 0.423747,0.09715 0.186035,0.09508 0.338997,0.297656 z m -0.487825,1.498615 q 0.237711,0 0.361734,-0.173633 0.126091,-0.173632 0.126091,-0.504361 0,-0.330729 -0.126091,-0.504362 -0.124023,-0.173632 -0.361734,-0.173632 -0.235645,0 -0.361735,0.173632 -0.124023,0.173633 -0.124023,0.504362 0,0.330729 0.124023,0.504361 0.12609,0.173633 0.361735,0.173633 z"
             id="text2-8"
             transform="matrix(3.4262776,0,0,3.4262776,-70.510384,-70.127345)"
             aria-label=" Climate.fund" /><g
             id="Group-6-8"
             transform="matrix(0.06824688,0,0,0.06824688,20.260763,8.5421382)"
             style="fill:none;fill-rule:evenodd;stroke:none;stroke-width:1"><g
               id="Group-6-9"
               transform="matrix(1.1072012,0,0,1.1072012,123.30496,267.72855)"
               style="fill:none;fill-rule:evenodd;stroke:none;stroke-width:1"><g
                 id="Group-3-4"
                 transform="matrix(1.1216333,0,0,1.1216333,0,-0.05699615)"><mask
                   id="mask-2-5"
                   fill="#ffffff"><use
                     xlink:href="#path-1-7-9"
                     id="use1-0" /></mask><g
                   id="Clip-2-3" /><path
                   d="M 34.243467,79.109902 H -5.3333333e-4 C -5.3333333e-4,35.747279 35.867467,0.46859016 79.954133,0.46859016 V 34.149902 c -25.205333,0 -45.710666,20.16918 -45.710666,44.96"
                   id="Fill-1-6"
                   fill="#3b52ff"
                   mask="url(#mask-2-5)" /></g><path
                 d="m 167.12336,185.01249 c -49.47794,0 -89.730664,-39.74809 -89.730664,-88.609025 h 38.430124 c 0,27.932575 23.01439,50.659275 51.30054,50.659275 z"
                 id="Fill-4-1"
                 fill="#00e6a7"
                 style="stroke-width:1.12163" /></g></g></g></g></g></g></svg>
